<svg id="color" enable-background="new 0 0 24 24" height="512" viewBox="0 0 24 24" width="512" xmlns="http://www.w3.org/2000/svg"><g><path d="m10 20c-5.514 0-10-4.486-10-10s4.486-10 10-10 10 4.486 10 10-4.486 10-10 10z" fill="#2196f3"/></g><g><path d="m8.94.06c-7.134.755-11.212 8.657-7.62 14.9 1.741-.263 2.962-1.745 2.98-3.42.021-1.284.915-2.323 2.11-2.57 4.261-.904 4.328-6.292 2.53-8.91z" fill="#8bc34a"/></g><g><path d="m17.33 10.97c-.5.73-1.46 1.03-2.28.7-5.667-2.287-8.917 3.926-5.91 7.63l.53.69c4.739.431 10.218-3.721 10.33-9.81-.93-.39-2.14-.05-2.67.79z" fill="#8bc34a"/></g><g><path d="m12.1.22c-.661 4.254 1.988 8.374 5.52 7.75l2.11-.26c-.88-3.74-3.86-6.68-7.63-7.49z" fill="#8bc34a"/></g><path d="m19 11c-2.757 0-5 2.271-5 5.062 0 3.853 4.328 7.6 4.512 7.757.281.24.694.24.976 0 .184-.157 4.512-3.904 4.512-7.757 0-2.791-2.243-5.062-5-5.062z" fill="#f44336"/><circle cx="19" cy="16" fill="#fff" r="2"/><path d="m10 4.815c-.244 1.925-1.324 3.674-3.59 4.155-1.196.248-2.089 1.286-2.11 2.57-.018 1.675-1.238 3.157-2.98 3.42-.069-.12-.135-.24-.198-.361 1.631 3.136 4.875 5.305 8.626 5.398-.026-.002-.052-.004-.077-.007l-.531-.69c-1.91-2.353-1.295-5.718.86-7.274zm-6.756-2.182c-1.647 1.512-2.787 3.566-3.133 5.878.35-2.245 1.462-4.332 3.133-5.878zm6.756-2.633c-.993 0-1.952.145-2.858.416.574-.169 1.174-.29 1.798-.356.55.801.926 1.861 1.06 2.973z" fill="#1d83d4"/><path d="m8.94.06c-.624.066-1.224.187-1.798.356-1.497.442-2.815 1.216-3.898 2.217-1.671 1.546-2.783 3.633-3.133 5.878-.312 1.995-.022 4.115 1.011 6.088.063.121.129.241.198.361 1.742-.263 2.962-1.745 2.98-3.42.021-1.284.915-2.323 2.11-2.57 2.266-.481 3.346-2.23 3.59-4.155v-1.782c-.134-1.112-.51-2.172-1.06-2.973z" fill="#79aa40"/><path d="m10 12.026c-2.155 1.556-2.77 4.921-.86 7.274l.53.69c.026.002.051.005.077.007.084.007.168.012.253.016z" fill="#79aa40"/><path d="m19 11c-2.757 0-5 2.271-5 5.062 0 3.853 4.328 7.6 4.512 7.757.141.121.314.181.488.181v-6c-1.103 0-2-.897-2-2s.897-2 2-2z" fill="#d43a2f"/><path d="m19 14c-1.103 0-2 .897-2 2s.897 2 2 2z" fill="#dedede"/></svg>